<?xml version="1.0" encoding="UTF-8"?>
<svg width="400" height="400" viewBox="0 0 400 400" fill="none" xmlns="http://www.w3.org/2000/svg">
  <g>
    <path d="M200 50C117.2 50 50 117.2 50 200C50 282.8 117.2 350 200 350C282.8 350 350 282.8 350 200C350 117.2 282.8 50 200 50Z" fill="#FE5F55" fill-opacity="0.1"/>
    <path d="M200 100C145.5 100 100 145.5 100 200C100 254.5 145.5 300 200 300C254.5 300 300 254.5 300 200C300 145.5 254.5 100 200 100Z" fill="#FE5F55" fill-opacity="0.2"/>
    <g transform="translate(150, 150)">
      <rect x="0" y="0" width="100" height="120" rx="8" fill="#FE5F55"/>
      <rect x="15" y="20" width="70" height="10" rx="2" fill="white"/>
      <rect x="15" y="40" width="50" height="10" rx="2" fill="white"/>
      <rect x="15" y="60" width="60" height="10" rx="2" fill="white"/>
      <rect x="15" y="80" width="40" height="10" rx="2" fill="white"/>
    </g>
    <g transform="translate(120, 130)">
      <circle cx="30" cy="30" r="25" fill="white"/>
      <path d="M30 15C22.8 15 17 20.8 17 28C17 32.5 19.3 36.4 22.8 38.7C19.3 41 17 44.9 17 49.4V52H43V49.4C43 44.9 40.7 41 37.2 38.7C40.7 36.4 43 32.5 43 28C43 20.8 37.2 15 30 15Z" fill="#FE5F55"/>
    </g>
  </g>
</svg>
